<svg width="430" height="132" viewBox="0 0 430 132" fill="none" xmlns="http://www.w3.org/2000/svg">
<path fill-rule="evenodd" clip-rule="evenodd" d="M143.648 71.1039V26.0482H147.972C151.494 26.0482 154.349 28.8948 154.349 32.4063V52.4393C161.277 46.2767 167.169 43.8098 175.021 43.6516C190.082 43.3444 203.154 54.4966 204.396 69.4655C205.881 87.3482 192.837 100.809 175.843 100.809C157.187 100.809 143.648 89.2751 143.648 71.1039ZM154.172 74.6414C155.227 83.9504 164.144 91.6396 173.546 91.7886C185.797 91.9748 194.144 84.0156 194.144 72.2396C194.144 60.4637 185.984 52.6907 174.079 52.6907C161.352 52.6627 152.724 61.8787 154.172 74.6414V74.6414Z" fill="#8A8C9C"/>
<path fill-rule="evenodd" clip-rule="evenodd" d="M222.249 44.7779V52.8023C228.981 45.3551 232.968 43.3536 240.849 43.3536C243.141 43.3561 245.43 43.5398 247.693 43.9029V54.5617C245.278 53.8998 242.784 53.5679 240.279 53.575C234.574 53.575 229.784 55.4368 226.273 58.9556C223.192 62.0369 222.277 64.4479 222.277 69.2886V98.9658H211.185V44.7779H222.249Z" fill="#8A8C9C"/>
<path fill-rule="evenodd" clip-rule="evenodd" d="M250.326 62.6978C250.896 57.4196 251.923 54.5617 254.201 51.8155C258.767 46.2301 266.984 43.3536 278.618 43.3536C287.862 43.3536 294.594 44.7872 299.272 47.8592C303.156 50.382 304.753 54.1242 304.753 60.715V84.7788C304.753 90.057 306.125 91.9188 309.888 91.8164C310.729 91.7869 311.567 91.7123 312.4 91.593V98.8448C310.529 99.4821 308.559 99.7785 306.583 99.7198C299.627 99.7198 296.433 97.6346 294.267 91.5837C287.423 97.8487 280.345 100.483 270.196 100.483C256.62 100.483 248.291 94.3299 248.291 84.3227C248.231 78.6161 251.599 73.4265 256.844 71.1411C260.952 69.3817 263.464 68.8325 275.21 67.6223C285.247 66.6355 286.966 66.4121 289.813 65.5277C292.895 64.541 294.267 62.8933 294.267 60.1471C294.267 54.3197 289.365 51.6852 279.094 51.6852C269.384 51.6852 264.379 53.6029 262.371 58.4994C261.377 61.0033 258.957 62.6539 256.255 62.6699L250.326 62.6978ZM294.211 71.9322C287.174 73.9729 279.947 75.2985 272.642 75.8886C262.717 76.8753 259.635 78.7465 259.635 83.6895C259.635 89.1819 264.201 92.0677 273.212 92.0677C280.625 92.0677 286.218 90.2059 290.215 86.5753C293.408 83.6058 294.211 81.5205 294.211 76.3354V71.9322Z" fill="#8A8C9C"/>
<path fill-rule="evenodd" clip-rule="evenodd" d="M339.179 98.9565H336.322C333.805 98.9723 331.502 97.5457 330.402 95.2887L306.471 44.7779H313.119C316.993 44.7471 320.52 46.9999 322.111 50.5216L338.077 86.8268L354.576 50.3819C356.19 46.9157 359.688 44.71 363.521 44.7407H369.562L345.071 95.3445C343.959 97.5707 341.673 98.972 339.179 98.9565V98.9565Z" fill="#8A8C9C"/>
<path fill-rule="evenodd" clip-rule="evenodd" d="M377.06 75.0042C378.199 85.4489 386.397 91.928 398.62 91.928C405.557 91.928 410.758 89.8707 413.979 85.7654C415.858 83.4113 418.712 82.0403 421.729 82.0418H428.163C422.56 94.3484 412.532 100.399 397.583 100.399C378.909 100.399 366.322 89.0794 366.322 72.1556C366.322 55.2318 379.217 43.3628 397.817 43.3628C411.272 43.3628 422.093 49.4044 426.454 59.5233C428.396 64.1778 429.19 68.311 429.19 75.0135L377.06 75.0042ZM417.901 66.6261C415.389 57.0657 407.976 51.6758 397.705 51.6758C387.434 51.6758 380.02 57.0657 377.396 66.6261H417.901Z" fill="#8A8C9C"/>
<path fill-rule="evenodd" clip-rule="evenodd" d="M109.329 31.4116L112.406 23.8738C112.406 23.8738 108.49 19.6862 103.736 14.9402C98.9815 10.1942 88.9133 12.9859 88.9133 12.9859L77.4468 0H57.3104H37.174L25.7074 12.9859C25.7074 12.9859 15.6393 10.1942 10.8848 14.9402C6.1304 19.6862 2.21499 23.8738 2.21499 23.8738L5.29139 31.4116L1.37598 42.5787C1.37598 42.5787 12.8915 86.1178 14.2409 91.4347C16.8978 101.904 18.7156 105.952 26.2668 111.256C33.8179 116.561 47.5219 125.773 49.7593 127.169C51.9966 128.565 54.7933 130.943 57.3104 130.943C59.8274 130.943 62.6242 128.565 64.8615 127.169C67.0989 125.773 80.8029 116.561 88.354 111.256C95.9051 105.952 97.723 101.904 100.38 91.4347C101.729 86.1178 113.245 42.5787 113.245 42.5787L109.329 31.4116Z" fill="url(#paint0_linear_1023_31993)"/>
<path fill-rule="evenodd" clip-rule="evenodd" d="M71.5745 23.5947C73.2526 23.5947 85.698 21.2217 85.698 21.2217C85.698 21.2217 100.447 39.0192 100.447 42.823C100.447 45.968 99.1785 47.199 97.6848 48.6487C97.3719 48.9524 97.0491 49.2656 96.726 49.6081L85.6672 61.3305C85.5576 61.4467 85.4356 61.5692 85.3064 61.6988C84.2026 62.8067 82.5771 64.4382 83.7241 67.1477C83.8007 67.3288 83.8796 67.5129 83.9596 67.6997C85.2172 70.6354 86.7695 74.2593 84.7935 77.9318C82.6915 81.838 79.0907 84.4452 76.7834 84.0142C74.4761 83.5829 69.0575 80.7562 67.0648 79.465C65.0722 78.1738 58.7566 72.9744 58.7566 70.985C58.7566 69.3258 63.2986 66.5656 65.5054 65.2245C65.9443 64.9577 66.2909 64.7471 66.491 64.6125C66.7188 64.4593 67.0998 64.223 67.5687 63.9322C69.583 62.6829 73.2199 60.4274 73.3113 59.4273C73.4237 58.1942 73.381 57.8327 71.7575 54.7863C71.4122 54.1385 71.0083 53.4446 70.5908 52.7275C69.0448 50.0723 67.3137 47.0991 67.6969 44.9693C68.1295 42.5651 71.9033 41.1867 75.1 40.0191C75.4995 39.8731 75.89 39.7305 76.2638 39.5896C77.1967 39.2379 78.369 38.7996 79.5935 38.3417C82.7851 37.1483 86.3312 35.8224 86.916 35.5532C87.7256 35.1805 87.5164 34.8257 85.0645 34.5937C84.7402 34.563 84.3369 34.5202 83.874 34.4711C80.8388 34.1491 75.241 33.5553 72.5196 34.3126C71.9843 34.4615 71.3843 34.6237 70.7551 34.7938C67.6975 35.6203 63.9505 36.6332 63.5905 37.2171C63.5275 37.3193 63.4656 37.4071 63.4072 37.49C63.0628 37.9787 62.8382 38.2973 63.2194 40.3738C63.3328 40.9921 63.5661 42.2084 63.8545 43.7123C64.6991 48.1156 66.0165 54.9842 66.1825 56.5272C66.2057 56.7432 66.2313 56.9516 66.2559 57.1521C66.4672 58.8736 66.6078 60.0191 64.6051 60.4762C64.4384 60.5142 64.2633 60.5544 64.0813 60.5961C61.8214 61.1137 58.5083 61.8726 57.3113 61.8726C56.1137 61.8726 52.798 61.1131 50.5383 60.5954C50.3574 60.5539 50.1832 60.514 50.0174 60.4762C48.0145 60.0191 48.1551 58.8735 48.3664 57.152C48.391 56.9515 48.4165 56.7432 48.4398 56.5272C48.6062 54.982 49.9269 48.0965 50.7714 43.694C51.0583 42.1986 51.2902 40.9896 51.4032 40.3738C51.7841 38.2975 51.5596 37.9788 51.2154 37.4902C51.1569 37.4072 51.0951 37.3193 51.0321 37.2171C50.6721 36.6332 46.9253 35.6204 43.8678 34.7939C43.2384 34.6238 42.6382 34.4615 42.1027 34.3126C39.3814 33.5554 33.7841 34.1491 30.7488 34.4711C30.2857 34.5202 29.8823 34.563 29.5577 34.5937C27.1061 34.8257 26.8969 35.1805 27.7063 35.5532C28.2911 35.8223 31.8354 37.1476 35.0263 38.3407C36.2518 38.7989 37.4252 39.2376 38.3587 39.5896C38.7327 39.7306 39.1234 39.8733 39.5231 40.0193C42.7195 41.1869 46.4931 42.5653 46.9257 44.9693C47.3088 47.0988 45.5781 50.0714 44.0324 52.7263C43.6147 53.4438 43.2104 54.1381 42.8651 54.7863C41.2416 57.8327 41.1985 58.1942 41.3112 59.4273C41.4024 60.4272 45.0381 62.6821 47.0525 63.9314C47.5219 64.2226 47.9033 64.4592 48.1313 64.6125C48.3313 64.747 48.6775 64.9574 49.116 65.2239C51.3226 66.5648 55.8657 69.3256 55.8657 70.985C55.8657 72.9744 49.5504 78.1738 47.5577 79.465C45.5651 80.7562 40.1464 83.5829 37.8391 84.0142C35.5318 84.4452 31.931 81.838 29.829 77.9318C27.8532 74.2596 29.4052 70.636 30.6624 67.7004C30.7425 67.5133 30.8215 67.329 30.8982 67.1477C32.0453 64.4379 30.4195 62.8063 29.3155 61.6984C29.1865 61.5689 29.0646 61.4466 28.9551 61.3305C28.3501 60.6891 25.3695 57.5297 22.6028 54.597C20.5859 52.4592 18.6827 50.4418 17.8963 49.6081C17.5732 49.2657 17.2505 48.9525 16.9377 48.6489C15.444 47.1991 14.1758 45.9681 14.1758 42.823C14.1758 39.0192 28.9246 21.2217 28.9246 21.2217C28.9246 21.2217 41.37 23.5947 43.048 23.5947C44.387 23.5947 46.9726 22.7059 49.6679 21.7793C50.3503 21.5447 51.0398 21.3077 51.7178 21.0821C55.0739 19.9654 57.3113 19.9573 57.3113 19.9573C57.3113 19.9573 59.5487 19.9654 62.9047 21.0821C63.5828 21.3077 64.2723 21.5447 64.9547 21.7793C67.65 22.7059 70.2355 23.5947 71.5745 23.5947ZM69.4388 86.5467C72.0696 87.8999 73.9359 88.86 74.6416 89.3008C75.5544 89.8714 74.9976 90.9471 74.1661 91.5339C73.3344 92.1207 62.1584 100.76 61.0739 101.714C60.9351 101.837 60.7879 101.969 60.6346 102.107C59.5895 103.047 58.2565 104.247 57.3114 104.247C56.366 104.247 55.0321 103.046 53.9869 102.106C53.8341 101.968 53.6874 101.836 53.549 101.714C52.4641 100.76 41.2885 92.1207 40.4567 91.5339C39.625 90.9471 39.0684 89.8714 39.9813 89.3008C40.6874 88.8597 42.5555 87.8988 45.1889 86.5442C45.9609 86.1471 46.7986 85.7162 47.6921 85.2546C51.633 83.2189 56.5448 81.488 57.3114 81.488C58.078 81.488 62.9896 83.2189 66.931 85.2546C67.8263 85.7172 68.6656 86.1489 69.4388 86.5467Z" fill="white"/>
<path fill-rule="evenodd" clip-rule="evenodd" d="M88.9133 12.9859L77.4467 0H57.3103H37.1739L25.7074 12.9859C25.7074 12.9859 15.6392 10.1942 10.8848 14.9402C10.8848 14.9402 24.309 13.7305 28.9236 21.2216C28.9236 21.2216 41.369 23.5947 43.0471 23.5947C44.7251 23.5947 48.3608 22.1988 51.7169 21.0821C55.073 19.9654 57.3103 19.9573 57.3103 19.9573C57.3103 19.9573 59.5477 19.9654 62.9038 21.0821C66.2598 22.1988 69.8956 23.5947 71.5736 23.5947C73.2516 23.5947 85.697 21.2216 85.697 21.2216C90.3116 13.7305 103.736 14.9402 103.736 14.9402C98.9815 10.1942 88.9133 12.9859 88.9133 12.9859" fill="url(#paint1_linear_1023_31993)"/>
<mask id="mask0_1023_31993" style="mask-type:alpha" maskUnits="userSpaceOnUse" x="10" y="0" width="94" height="24">
<path fill-rule="evenodd" clip-rule="evenodd" d="M88.9133 12.9859L77.4467 0H57.3103H37.1739L25.7074 12.9859C25.7074 12.9859 15.6392 10.1942 10.8848 14.9402C10.8848 14.9402 24.309 13.7305 28.9236 21.2216C28.9236 21.2216 41.369 23.5947 43.0471 23.5947C44.7251 23.5947 48.3608 22.1988 51.7169 21.0821C55.073 19.9654 57.3103 19.9573 57.3103 19.9573C57.3103 19.9573 59.5477 19.9654 62.9038 21.0821C66.2598 22.1988 69.8956 23.5947 71.5736 23.5947C73.2516 23.5947 85.697 21.2216 85.697 21.2216C90.3116 13.7305 103.736 14.9402 103.736 14.9402C98.9815 10.1942 88.9133 12.9859 88.9133 12.9859" fill="white"/>
</mask>
<g mask="url(#mask0_1023_31993)">
</g>
<defs>
<linearGradient id="paint0_linear_1023_31993" x1="1.37598" y1="131.867" x2="113.245" y2="131.867" gradientUnits="userSpaceOnUse">
<stop stop-color="#FF5500"/>
<stop offset="0.409877" stop-color="#FF5500"/>
<stop offset="0.581981" stop-color="#FF2000"/>
<stop offset="1" stop-color="#FF2000"/>
</linearGradient>
<linearGradient id="paint1_linear_1023_31993" x1="12.8796" y1="23.5077" x2="103.736" y2="23.5077" gradientUnits="userSpaceOnUse">
<stop stop-color="#FF452A"/>
<stop offset="1" stop-color="#FF2000"/>
</linearGradient>
</defs>
</svg>
